<svg width="30" height="29" viewBox="0 0 30 29" fill="none" xmlns="http://www.w3.org/2000/svg">
<path d="M15.3902 7.22056C11.3039 7.22056 8.00789 10.3668 8.00789 14.2673C8.00789 18.1679 11.3039 21.3141 15.3902 21.3141C19.4765 21.3141 22.7725 18.1679 22.7725 14.2673C22.7725 10.3668 19.4765 7.22056 15.3902 7.22056ZM15.3902 18.8486C12.7495 18.8486 10.5907 16.7941 10.5907 14.2673C10.5907 11.7405 12.7431 9.686 15.3902 9.686C18.0373 9.686 20.1897 11.7405 20.1897 14.2673C20.1897 16.7941 18.0309 18.8486 15.3902 18.8486ZM24.7964 6.93231C24.7964 7.84612 24.0254 8.57594 23.0745 8.57594C22.1172 8.57594 21.3526 7.83998 21.3526 6.93231C21.3526 6.02463 22.1236 5.28867 23.0745 5.28867C24.0254 5.28867 24.7964 6.02463 24.7964 6.93231ZM29.6858 8.60047C29.5766 6.39874 29.0497 4.44846 27.36 2.84163C25.6766 1.23479 23.6335 0.73189 21.3269 0.621496C18.9497 0.492704 11.8243 0.492704 9.44709 0.621496C7.14694 0.725757 5.1038 1.22866 3.41402 2.83549C1.72425 4.44233 1.20383 6.39261 1.08818 8.59434C0.953253 10.8635 0.953253 17.665 1.08818 19.9342C1.1974 22.1359 1.72425 24.0862 3.41402 25.693C5.1038 27.2998 7.14052 27.8028 9.44709 27.9131C11.8243 28.0419 18.9497 28.0419 21.3269 27.9131C23.6335 27.8089 25.6766 27.306 27.36 25.693C29.0433 24.0862 29.5702 22.1359 29.6858 19.9342C29.8207 17.665 29.8207 10.8697 29.6858 8.60047ZM26.6147 22.369C26.1135 23.571 25.1433 24.4971 23.8776 24.9816C21.9823 25.6991 17.4848 25.5336 15.3902 25.5336C13.2957 25.5336 8.79174 25.693 6.90279 24.9816C5.6435 24.5032 4.67332 23.5771 4.16575 22.369C3.41402 20.5597 3.5875 16.2667 3.5875 14.2673C3.5875 12.268 3.42045 7.96878 4.16575 6.16569C4.6669 4.96363 5.63707 4.03755 6.90279 3.55305C8.79817 2.83549 13.2957 3.00108 15.3902 3.00108C17.4848 3.00108 21.9887 2.84163 23.8776 3.55305C25.1369 4.03142 26.1071 4.9575 26.6147 6.16569C27.3664 7.97491 27.1929 12.268 27.1929 14.2673C27.1929 16.2667 27.3664 20.5659 26.6147 22.369Z" fill="white"/>
</svg>
