<svg width="26" height="28" viewBox="0 0 26 28" fill="none" xmlns="http://www.w3.org/2000/svg">
<path d="M5.62808 27.2876H0.415315V9.06907H5.62808V27.2876ZM3.01889 6.58389C1.35202 6.58389 0 5.08547 0 3.27641C1.19308e-08 2.40745 0.318061 1.57409 0.884214 0.959639C1.45037 0.345192 2.21823 0 3.01889 0C3.81955 0 4.58742 0.345192 5.15357 0.959639C5.71973 1.57409 6.03779 2.40745 6.03779 3.27641C6.03779 5.08547 4.68521 6.58389 3.01889 6.58389ZM25.1378 27.2876H19.9363V18.4189C19.9363 16.3053 19.897 13.5948 17.226 13.5948C14.5158 13.5948 14.1005 15.8911 14.1005 18.2667V27.2876H8.89336V9.06907H13.8929V11.5542H13.9658C14.6618 10.1228 16.3617 8.61223 18.898 8.61223C24.1736 8.61223 25.1434 12.3826 25.1434 17.2799V27.2876H25.1378Z" fill="white"/>
</svg>
