<svg width="25" height="22" viewBox="0 0 25 22" fill="none" xmlns="http://www.w3.org/2000/svg">
<path d="M2.92185 4.93281C2.95245 4.6046 2.83517 4.2764 2.6108 4.05389L0.311052 1.02773V0.577148H7.46016L12.9877 13.7999L17.8473 0.577148H24.6649V1.02773L22.6966 3.08596C22.5283 3.22503 22.4417 3.45867 22.4774 3.68675V18.8175C22.4417 19.0456 22.5283 19.2792 22.6966 19.4183L24.619 21.4765V21.9271H14.9458V21.4765L16.9396 19.3682C17.1334 19.1568 17.1334 19.0901 17.1334 18.7675V6.54045L11.5905 21.8882H10.8409L4.39553 6.54045V16.826C4.33943 17.2599 4.47201 17.6938 4.75247 18.0054L7.34287 21.432V21.8826H0V21.4376L2.5904 18.0054C2.86576 17.6938 2.99324 17.2544 2.92185 16.826V4.93281Z" fill="white"/>
</svg>
