<svg width="145" height="121" viewBox="0 0 145 121" fill="none" xmlns="http://www.w3.org/2000/svg">
<path d="M144.653 117.295L126.003 29.5361C125.834 28.7168 125.232 28.0663 124.413 27.8253C123.617 27.5843 122.75 27.8012 122.147 28.4036L111.882 38.6687C111.569 38.9819 111.352 39.3675 111.256 39.8012L103.81 74.8374L91.8583 18.3072C91.7378 17.6807 91.3281 17.1265 90.7739 16.7891L62.2196 0.307229C61.5208 -0.10241 60.6535 -0.10241 59.9306 0.307229L41.0631 11.1988C40.5089 11.5121 40.0992 12.0663 39.9787 12.6928L31.1836 54.1145L18.1233 46.5723C17.4968 46.2108 16.7257 46.1627 16.051 46.4518C15.3763 46.741 14.8945 47.3434 14.7499 48.0662L0.0509911 117.271C-0.214069 118.5 0.581212 119.729 1.81013 119.994C3.03904 120.259 4.26795 119.464 4.50891 118.235L18.557 52.1144L31.6173 59.6566C32.2438 60.0181 33.0149 60.0663 33.6896 59.7771C34.3643 59.488 34.8462 58.8855 34.9907 58.1626L44.2438 14.6687L58.6052 6.37953L53.6174 29.7771C53.4728 30.4518 53.7859 31.1506 54.3883 31.4879L69.545 40.2349L73.4245 58.6928L49.8342 82.2831C49.4487 82.6687 49.28 83.2229 49.4005 83.753L56.7016 118.114C56.8703 118.861 57.521 119.392 58.2679 119.392C58.3884 119.392 58.4847 119.367 58.6052 119.343C59.4726 119.151 60.0269 118.307 59.8341 117.44L52.7017 83.9458L76.292 60.3554C76.6775 59.9699 76.8462 59.4157 76.7257 58.8856L72.5088 38.8614C72.4125 38.4277 72.1474 38.0422 71.7377 37.8012L56.9666 29.2711L62.027 5.43977L87.5932 20.2108L101.569 86.2832C101.786 87.3434 102.726 88.0904 103.81 88.0904C104.894 88.0904 105.834 87.3434 106.051 86.2832L115.593 41.3675L122.412 34.5482L140.196 118.187C140.437 119.271 141.376 119.994 142.437 119.994C142.605 119.994 142.75 119.97 142.919 119.946C144.147 119.753 144.918 118.524 144.653 117.295Z" fill="#413D76"/>
</svg>
