<svg width="743" height="400" viewBox="0 0 743 400" fill="none" xmlns="http://www.w3.org/2000/svg">
<path d="M543.939 286.196L498.15 72.1003C497.965 71.1106 497.504 70.1931 496.821 69.4527C496.139 68.7124 495.263 68.1791 494.292 67.9139C493.327 67.624 492.299 67.5986 491.321 67.8402C490.343 68.0819 489.447 68.5817 488.728 69.2876L463.674 94.3406C462.948 95.1397 462.435 96.1061 462.173 97.1534L444.05 182.583L414.813 44.627C414.656 43.8677 414.343 43.1496 413.893 42.5187C413.442 41.8879 412.867 41.3583 412.2 40.9639L342.469 0.734916C341.621 0.253232 340.658 0 339.684 0C338.709 0 337.752 0.253232 336.905 0.734916L291.116 27.358C290.441 27.7518 289.859 28.2803 289.398 28.9105C288.936 29.5407 288.605 30.2591 288.433 31.0211L266.982 132.084L235.125 113.703C234.347 113.301 233.485 113.092 232.608 113.092C231.732 113.092 230.864 113.301 230.085 113.703C229.278 114.056 228.566 114.597 228.009 115.279C227.452 115.961 227.07 116.766 226.885 117.628L190.972 286.458C190.699 287.896 190.996 289.383 191.802 290.604C192.608 291.826 193.861 292.685 195.29 292.999C196.72 293.291 198.206 293.009 199.429 292.213C200.653 291.418 201.517 290.173 201.831 288.748L236.173 127.374L267.959 145.755C268.75 146.157 269.628 146.367 270.515 146.367C271.401 146.367 272.273 146.157 273.063 145.755C273.868 145.407 274.573 144.867 275.12 144.183C275.668 143.499 276.043 142.691 276.206 141.83L298.769 35.6654L333.768 15.4528L321.663 72.5583C321.503 73.3596 321.597 74.1909 321.925 74.9396C322.253 75.6883 322.799 76.3184 323.496 76.7447L360.521 98.1346L370.007 143.139L312.445 200.702C311.994 201.173 311.663 201.746 311.481 202.373C311.299 202.999 311.27 203.66 311.398 204.3L329.188 288.093C329.378 288.966 329.855 289.749 330.542 290.318C331.23 290.888 332.09 291.21 332.983 291.233H333.832C334.846 291.014 335.728 290.402 336.292 289.532C336.855 288.661 337.055 287.603 336.841 286.589L319.44 204.888L377.002 147.325C377.468 146.864 377.809 146.291 377.992 145.662C378.175 145.032 378.195 144.367 378.05 143.727L367.784 94.9294C367.683 94.3966 367.462 93.8922 367.145 93.4516C366.829 93.011 366.423 92.6447 365.951 92.3783L329.91 71.5116L342.271 13.425L404.675 49.4674L438.755 210.71C439.023 211.95 439.709 213.062 440.697 213.859C441.684 214.656 442.915 215.092 444.184 215.093C445.462 215.095 446.699 214.662 447.698 213.865C448.696 213.069 449.396 211.956 449.678 210.71L472.962 101.144L489.577 84.4633L532.952 288.617C533.234 289.862 533.927 290.975 534.926 291.772C535.924 292.568 537.168 293.001 538.445 292.999C538.813 293.06 539.189 293.06 539.557 292.999C540.994 292.7 542.255 291.844 543.064 290.619C543.873 289.393 544.165 287.898 543.875 286.458" fill="#413D76"/>
<path d="M2.0605 399.02C1.5372 399.02 1.0466 398.823 0.588715 398.431C0.196238 398.038 0 397.548 0 396.959L0.196238 396.076L23.843 332.789C24.3009 331.154 25.4456 330.336 27.2771 330.336H37.9721C39.6729 330.336 40.8176 331.154 41.4063 332.789L65.053 396.076C65.1185 396.272 65.1512 396.567 65.1512 396.959C65.1512 397.548 64.9549 398.038 64.5625 398.431C64.17 398.823 63.7121 399.02 63.1888 399.02H54.6524C53.802 399.02 53.1479 398.823 52.69 398.431C52.2321 398.038 51.9378 397.613 51.807 397.155L47.1953 385.185H18.0539L13.4423 397.155C12.919 398.398 11.9705 399.02 10.5969 399.02H2.0605ZM43.7612 373.901L32.5756 343.582L21.4881 373.901H43.7612Z" fill="#413D76"/>
<path d="M78.6288 399.02C77.9746 399.02 77.4186 398.791 76.9607 398.333C76.5028 397.875 76.2739 397.319 76.2739 396.665V332.789C76.2739 332.07 76.4701 331.481 76.8626 331.023C77.3205 330.565 77.9092 330.336 78.6288 330.336H86.1839C86.9689 330.336 87.5576 330.5 87.9501 330.827C88.3426 331.088 88.7023 331.448 89.0294 331.906L117.288 375.863V332.789C117.288 332.07 117.484 331.481 117.876 331.023C118.334 330.565 118.923 330.336 119.643 330.336H127.885C128.604 330.336 129.193 330.565 129.651 331.023C130.109 331.481 130.338 332.07 130.338 332.789V396.567C130.338 397.286 130.109 397.875 129.651 398.333C129.193 398.791 128.637 399.02 127.983 399.02H120.329C119.217 399.02 118.269 398.496 117.484 397.45L89.3238 354.473V396.665C89.3238 397.384 89.0948 397.973 88.6369 398.431C88.179 398.823 87.5903 399.02 86.8708 399.02H78.6288Z" fill="#413D76"/>
<path d="M149.965 399.02C149.31 399.02 148.754 398.791 148.296 398.333C147.839 397.875 147.61 397.319 147.61 396.665V332.789C147.61 332.07 147.806 331.481 148.198 331.023C148.656 330.565 149.245 330.336 149.965 330.336H173.906C193.137 330.336 202.949 339.232 203.341 357.025C203.472 360.819 203.538 363.37 203.538 364.678C203.538 365.921 203.472 368.439 203.341 372.233C203.08 381.391 200.627 388.161 195.982 392.544C191.338 396.861 184.143 399.02 174.396 399.02H149.965ZM173.906 387.736C179.4 387.736 183.358 386.526 185.778 384.106C188.198 381.62 189.474 377.564 189.605 371.939C189.735 368.014 189.801 365.561 189.801 364.58C189.801 363.533 189.735 361.113 189.605 357.319C189.474 351.955 188.1 347.998 185.484 345.447C182.933 342.895 178.91 341.62 173.415 341.62H161.248V387.736H173.906Z" fill="#413D76"/>
<path d="M220.917 399.02C220.263 399.02 219.707 398.791 219.249 398.333C218.791 397.875 218.562 397.319 218.562 396.665V332.789C218.562 332.07 218.758 331.481 219.151 331.023C219.609 330.565 220.197 330.336 220.917 330.336H264.089C264.809 330.336 265.398 330.565 265.856 331.023C266.313 331.481 266.542 332.07 266.542 332.789V339.265C266.542 339.985 266.313 340.573 265.856 341.031C265.398 341.424 264.809 341.62 264.089 341.62H231.808V358.987H261.931C262.65 358.987 263.239 359.216 263.697 359.674C264.155 360.066 264.384 360.622 264.384 361.342V367.425C264.384 368.145 264.155 368.733 263.697 369.191C263.239 369.584 262.65 369.78 261.931 369.78H231.808V387.736H264.874C265.594 387.736 266.183 387.965 266.641 388.423C267.098 388.881 267.327 389.469 267.327 390.189V396.665C267.327 397.384 267.098 397.973 266.641 398.431C266.183 398.823 265.594 399.02 264.874 399.02H220.917Z" fill="#413D76"/>
<path d="M305.405 400.001C299.583 400.001 294.579 399.118 290.392 397.352C286.206 395.585 283.033 393.263 280.875 390.385C278.716 387.507 277.571 384.4 277.441 381.064C277.441 380.475 277.637 379.984 278.029 379.592C278.422 379.2 278.912 379.003 279.501 379.003H288.234C289.019 379.003 289.607 379.167 290 379.494C290.458 379.756 290.883 380.213 291.275 380.868C291.929 383.092 293.434 384.956 295.789 386.46C298.144 387.965 301.349 388.717 305.405 388.717C310.049 388.717 313.548 387.965 315.903 386.46C318.258 384.89 319.436 382.732 319.436 379.984C319.436 378.153 318.814 376.648 317.571 375.471C316.394 374.294 314.595 373.28 312.175 372.429C309.82 371.579 306.288 370.532 301.578 369.29C293.859 367.458 288.201 365.038 284.603 362.029C281.071 358.954 279.305 354.604 279.305 348.979C279.305 345.185 280.319 341.816 282.346 338.873C284.44 335.929 287.416 333.607 291.275 331.906C295.2 330.205 299.746 329.355 304.914 329.355C310.278 329.355 314.922 330.303 318.847 332.2C322.772 334.097 325.748 336.485 327.776 339.363C329.869 342.176 330.981 344.989 331.112 347.801C331.112 348.39 330.915 348.881 330.523 349.273C330.131 349.666 329.64 349.862 329.051 349.862H319.926C318.552 349.862 317.604 349.24 317.081 347.998C316.688 345.904 315.38 344.171 313.156 342.797C310.932 341.358 308.185 340.639 304.914 340.639C301.251 340.639 298.373 341.326 296.279 342.699C294.186 344.073 293.14 346.068 293.14 348.684C293.14 350.516 293.663 352.021 294.71 353.198C295.756 354.375 297.391 355.422 299.615 356.338C301.905 357.254 305.176 358.267 309.427 359.379C315.184 360.688 319.763 362.16 323.164 363.795C326.631 365.43 329.182 367.491 330.817 369.976C332.453 372.462 333.27 375.635 333.27 379.494C333.27 383.68 332.093 387.343 329.738 390.483C327.449 393.558 324.178 395.913 319.926 397.548C315.74 399.183 310.899 400.001 305.405 400.001Z" fill="#413D76"/>
<path d="M372.97 400.001C363.943 400.001 356.943 397.679 351.972 393.034C347.066 388.39 344.45 381.849 344.123 373.411C344.057 371.644 344.024 368.766 344.024 364.776C344.024 360.72 344.057 357.777 344.123 355.945C344.45 347.572 347.099 341.064 352.07 336.42C357.107 331.71 364.073 329.355 372.97 329.355C378.791 329.355 383.861 330.369 388.178 332.397C392.495 334.359 395.831 337.074 398.186 340.541C400.541 343.942 401.784 347.801 401.915 352.119V352.315C401.915 352.838 401.686 353.296 401.228 353.689C400.835 354.016 400.378 354.179 399.854 354.179H390.533C389.748 354.179 389.159 354.016 388.767 353.689C388.374 353.361 388.047 352.74 387.786 351.824C386.739 347.703 385.006 344.825 382.585 343.19C380.165 341.489 376.927 340.639 372.871 340.639C363.452 340.639 358.546 345.904 358.154 356.436C358.088 358.202 358.055 360.917 358.055 364.58C358.055 368.243 358.088 371.023 358.154 372.92C358.546 383.451 363.452 388.717 372.871 388.717C376.927 388.717 380.165 387.867 382.585 386.166C385.071 384.465 386.804 381.587 387.786 377.532C387.982 376.616 388.276 375.994 388.669 375.667C389.127 375.34 389.748 375.177 390.533 375.177H399.854C400.443 375.177 400.934 375.373 401.326 375.765C401.784 376.158 401.98 376.648 401.915 377.237C401.784 381.554 400.541 385.446 398.186 388.913C395.831 392.315 392.495 395.029 388.178 397.057C383.861 399.02 378.791 400.001 372.97 400.001Z" fill="#413D76"/>
<path d="M410.528 399.02C410.004 399.02 409.514 398.823 409.056 398.431C408.663 398.038 408.467 397.548 408.467 396.959L408.663 396.076L432.31 332.789C432.768 331.154 433.913 330.336 435.744 330.336H446.439C448.14 330.336 449.285 331.154 449.874 332.789L473.52 396.076C473.586 396.272 473.618 396.567 473.618 396.959C473.618 397.548 473.422 398.038 473.03 398.431C472.637 398.823 472.179 399.02 471.656 399.02H463.12C462.269 399.02 461.615 398.823 461.157 398.431C460.699 398.038 460.405 397.613 460.274 397.155L455.663 385.185H426.521L421.91 397.155C421.386 398.398 420.438 399.02 419.064 399.02H410.528ZM452.228 373.901L441.043 343.582L429.955 373.901H452.228Z" fill="#413D76"/>
<path d="M487.096 399.02C486.442 399.02 485.886 398.791 485.428 398.333C484.97 397.875 484.741 397.319 484.741 396.665V332.691C484.741 331.971 484.97 331.415 485.428 331.023C485.886 330.565 486.442 330.336 487.096 330.336H496.221C496.941 330.336 497.497 330.565 497.889 331.023C498.347 331.415 498.576 331.971 498.576 332.691V387.343H529.68C530.399 387.343 530.988 387.572 531.446 388.03C531.904 388.488 532.133 389.077 532.133 389.796V396.665C532.133 397.384 531.904 397.973 531.446 398.431C530.988 398.823 530.399 399.02 529.68 399.02H487.096Z" fill="#413D76"/>
<path d="M539.401 399.02C538.878 399.02 538.387 398.823 537.929 398.431C537.537 398.038 537.341 397.548 537.341 396.959L537.537 396.076L561.184 332.789C561.642 331.154 562.786 330.336 564.618 330.336H575.313C577.014 330.336 578.158 331.154 578.747 332.789L602.394 396.076C602.459 396.272 602.492 396.567 602.492 396.959C602.492 397.548 602.296 398.038 601.903 398.431C601.511 398.823 601.053 399.02 600.53 399.02H591.993C591.143 399.02 590.489 398.823 590.031 398.431C589.573 398.038 589.278 397.613 589.148 397.155L584.536 385.185H555.395L550.783 397.155C550.26 398.398 549.311 399.02 547.938 399.02H539.401ZM581.102 373.901L569.916 343.582L558.829 373.901H581.102Z" fill="#413D76"/>
<path d="M615.969 399.02C615.315 399.02 614.759 398.791 614.301 398.333C613.844 397.875 613.615 397.319 613.615 396.665V332.789C613.615 332.07 613.811 331.481 614.203 331.023C614.661 330.565 615.25 330.336 615.969 330.336H639.911C659.142 330.336 668.954 339.232 669.346 357.025C669.477 360.819 669.543 363.37 669.543 364.678C669.543 365.921 669.477 368.439 669.346 372.233C669.085 381.391 666.632 388.161 661.987 392.544C657.343 396.861 650.148 399.02 640.401 399.02H615.969ZM639.911 387.736C645.405 387.736 649.363 386.526 651.783 384.106C654.203 381.62 655.479 377.564 655.61 371.939C655.74 368.014 655.806 365.561 655.806 364.58C655.806 363.533 655.74 361.113 655.61 357.319C655.479 351.955 654.105 347.998 651.489 345.447C648.937 342.895 644.915 341.62 639.42 341.62H627.253V387.736H639.911Z" fill="#413D76"/>
<path d="M679.006 399.02C678.483 399.02 677.993 398.823 677.535 398.431C677.142 398.038 676.946 397.548 676.946 396.959L677.142 396.076L700.789 332.789C701.247 331.154 702.392 330.336 704.223 330.336H714.918C716.619 330.336 717.764 331.154 718.352 332.789L741.999 396.076C742.064 396.272 742.097 396.567 742.097 396.959C742.097 397.548 741.901 398.038 741.508 398.431C741.116 398.823 740.658 399.02 740.135 399.02H731.598C730.748 399.02 730.094 398.823 729.636 398.431C729.178 398.038 728.884 397.613 728.753 397.155L724.141 385.185H695L690.388 397.155C689.865 398.398 688.917 399.02 687.543 399.02H679.006ZM720.707 373.901L709.522 343.582L698.434 373.901H720.707Z" fill="#413D76"/>
</svg>
