<svg width="1080" height="1080" viewBox="0 0 1080 1080" fill="none" xmlns="http://www.w3.org/2000/svg">
<rect width="1080" height="1080" fill="white"/>
<mask id="mask0" mask-type="alpha" maskUnits="userSpaceOnUse" x="0" y="0" width="1080" height="1080">
<rect width="1080" height="1080" fill="#C4C4C4"/>
</mask>
<g mask="url(#mask0)">
<path d="M608.574 1632.62L-546.506 609.094L477.673 -546.506L1632.62 477.022L608.574 1632.62Z" fill="url(#paint0_linear)"/>
</g>
<path d="M900.996 826.256L807.778 387.625C806.935 383.53 803.925 380.279 799.83 379.074C795.855 377.87 791.52 378.954 788.509 381.965L737.203 433.271C735.637 434.837 734.553 436.764 734.071 438.931L696.856 614.047L637.12 331.502C636.517 328.371 634.47 325.6 631.7 323.914L488.982 241.536C485.489 239.488 481.154 239.488 477.541 241.536L383.239 295.973C380.469 297.539 378.421 300.309 377.819 303.44L333.86 510.471L268.582 472.774C265.451 470.968 261.597 470.727 258.225 472.172C254.853 473.617 252.444 476.628 251.722 480.241L178.255 826.136C176.93 832.278 180.905 838.42 187.047 839.745C193.19 841.07 199.332 837.095 200.536 830.953L270.75 500.475L336.028 538.171C339.159 539.978 343.013 540.219 346.385 538.774C349.757 537.328 352.166 534.317 352.888 530.704L399.136 313.316L470.916 271.886L445.986 388.83C445.264 392.202 446.829 395.695 449.84 397.381L525.595 441.099L544.985 533.354L427.078 651.262C425.151 653.189 424.308 655.958 424.91 658.608L461.402 830.351C462.245 834.085 465.497 836.734 469.231 836.734C469.833 836.734 470.314 836.614 470.916 836.493C475.252 835.53 478.022 831.315 477.059 826.979L441.41 659.572L559.317 541.664C561.244 539.737 562.087 536.967 561.485 534.318L540.408 434.234C539.927 432.066 538.602 430.14 536.554 428.935L462.727 386.301L488.019 267.189L615.802 341.016L685.655 671.254C686.739 676.553 691.436 680.287 696.856 680.287C702.275 680.287 706.972 676.553 708.056 671.254L755.75 446.76L789.833 412.676L878.716 830.712C879.92 836.132 884.617 839.745 889.916 839.745C890.759 839.745 891.482 839.625 892.325 839.504C898.467 838.541 902.321 832.399 900.996 826.256Z" fill="white"/>
<defs>
<linearGradient id="paint0_linear" x1="1043.61" y1="986.515" x2="62.0968" y2="116.717" gradientUnits="userSpaceOnUse">
<stop stop-color="#413D76"/>
<stop offset="1" stop-color="#C75F3D"/>
</linearGradient>
</defs>
</svg>
