<svg width="374" height="200" viewBox="0 0 374 200" fill="none" xmlns="http://www.w3.org/2000/svg">
<path d="M272.017 143.098L249.123 36.0502C249.03 35.5553 248.8 35.0965 248.459 34.7264C248.117 34.3562 247.679 34.0896 247.194 33.957C246.711 33.812 246.198 33.7993 245.708 33.9201C245.219 34.0409 244.771 34.2909 244.412 34.6438L231.885 47.1703C231.522 47.5699 231.265 48.053 231.134 48.5767L222.073 91.2913L207.454 22.3135C207.376 21.9339 207.219 21.5748 206.994 21.2594C206.769 20.9439 206.481 20.6791 206.148 20.4819L171.282 0.367458C170.859 0.126616 170.377 0 169.89 0C169.402 0 168.924 0.126616 168.5 0.367458L145.606 13.679C145.269 13.8759 144.977 14.1401 144.747 14.4552C144.516 14.7703 144.35 15.1296 144.264 15.5105L133.539 66.0419L117.611 56.8514C117.221 56.6506 116.79 56.5459 116.352 56.5459C115.914 56.5459 115.48 56.6506 115.09 56.8514C114.687 57.0282 114.331 57.2983 114.052 57.6395C113.774 57.9806 113.583 58.3832 113.49 58.8138L95.5337 143.229C95.3975 143.948 95.5459 144.692 95.9489 145.302C96.3519 145.913 96.9783 146.342 97.6928 146.5C98.4079 146.646 99.1506 146.504 99.7625 146.107C100.374 145.709 100.806 145.087 100.963 144.374L118.134 63.6871L134.028 72.8776C134.423 73.0786 134.862 73.1834 135.305 73.1834C135.749 73.1834 136.184 73.0786 136.58 72.8776C136.982 72.7036 137.334 72.4337 137.608 72.0916C137.882 71.7495 138.07 71.3456 138.151 70.9152L149.432 17.8327L166.932 7.7264L160.879 36.2791C160.799 36.6798 160.847 37.0954 161.01 37.4698C161.174 37.8441 161.447 38.1592 161.796 38.3723L180.308 49.0673L185.052 71.5693L156.271 100.351C156.045 100.587 155.879 100.873 155.788 101.186C155.697 101.499 155.683 101.83 155.747 102.15L164.642 144.047C164.737 144.483 164.975 144.875 165.319 145.159C165.663 145.444 166.093 145.605 166.539 145.617H166.964C167.471 145.507 167.912 145.201 168.194 144.766C168.476 144.331 168.575 143.802 168.468 143.294L159.768 102.444L188.549 73.6626C188.782 73.4319 188.952 73.1456 189.044 72.8308C189.136 72.5161 189.145 72.1833 189.073 71.8637L183.94 47.4647C183.889 47.1983 183.779 46.9461 183.621 46.7258C183.462 46.5055 183.26 46.3224 183.023 46.1892L165.003 35.7558L171.183 6.71251L202.385 24.7337L219.425 105.355C219.56 105.975 219.902 106.531 220.396 106.93C220.89 107.328 221.505 107.546 222.14 107.546C222.779 107.547 223.397 107.331 223.897 106.933C224.396 106.534 224.746 105.978 224.887 105.355L236.529 50.5718L244.837 42.2317L266.524 144.308C266.665 144.931 267.011 145.488 267.511 145.886C268.01 146.284 268.632 146.501 269.271 146.5C269.455 146.53 269.642 146.53 269.826 146.5C270.545 146.35 271.175 145.922 271.58 145.309C271.984 144.697 272.13 143.949 271.985 143.229" fill="white"/>
<path d="M19.3295 165.168C19.8528 165.168 20.2453 165.315 20.5069 165.609C20.7686 165.871 20.9975 166.28 21.1938 166.836L33.2134 197.842C33.2461 197.94 33.2624 198.054 33.2624 198.185C33.2624 198.545 33.1316 198.855 32.8699 199.117C32.6083 199.379 32.2976 199.51 31.9378 199.51H28.4055C27.7514 199.51 27.2935 199.379 27.0318 199.117C26.7702 198.823 26.5903 198.545 26.4922 198.283L24.3826 192.837H8.87979L6.77023 198.283C6.67211 198.545 6.49222 198.823 6.23057 199.117C5.96892 199.379 5.51103 199.51 4.8569 199.51H1.32461C0.964839 199.51 0.654128 199.379 0.392477 199.117C0.130826 198.855 0 198.545 0 198.185C0 198.054 0.0163532 197.94 0.0490596 197.842L12.0687 166.836C12.2649 166.28 12.4938 165.871 12.7555 165.609C13.0172 165.315 13.4096 165.168 13.9329 165.168H19.3295ZM22.0278 186.705L16.6312 172.723L11.2347 186.705H22.0278Z" fill="white"/>
<path d="M60.9861 199.51C60.4301 199.51 60.0049 199.362 59.7105 199.068C59.4162 198.774 59.2036 198.545 59.0728 198.381L45.3361 177.972V198.185C45.3361 198.545 45.2052 198.855 44.9436 199.117C44.6819 199.379 44.3712 199.51 44.0115 199.51H40.0376C39.6779 199.51 39.3671 199.379 39.1055 199.117C38.8438 198.855 38.713 198.545 38.713 198.185V166.492C38.713 166.133 38.8438 165.822 39.1055 165.56C39.3671 165.299 39.6779 165.168 40.0376 165.168H43.4718C44.0278 165.168 44.453 165.315 44.7474 165.609C45.0417 165.904 45.2543 166.133 45.3851 166.296L59.1218 186.705V166.492C59.1218 166.133 59.2526 165.822 59.5143 165.56C59.7759 165.299 60.0867 165.168 60.4464 165.168H64.4203C64.78 165.168 65.0907 165.299 65.3524 165.56C65.614 165.822 65.7449 166.133 65.7449 166.492V198.185C65.7449 198.545 65.614 198.855 65.3524 199.117C65.0907 199.379 64.78 199.51 64.4203 199.51H60.9861Z" fill="white"/>
<path d="M87.8232 165.168C90.2435 165.168 92.3367 165.495 94.1029 166.149C95.9017 166.77 97.3899 167.67 98.5673 168.847C99.7774 170.025 100.693 171.447 101.315 173.115C101.969 174.784 102.361 176.648 102.492 178.708C102.623 181.129 102.623 183.549 102.492 185.969C102.361 188.03 101.969 189.894 101.315 191.562C100.693 193.23 99.7938 194.653 98.6163 195.83C97.4389 197.008 95.9671 197.923 94.201 198.577C92.4675 199.199 90.4234 199.51 88.0685 199.51H75.7055C75.3457 199.51 75.035 199.379 74.7734 199.117C74.5117 198.855 74.3809 198.545 74.3809 198.185V166.492C74.3809 166.133 74.5117 165.822 74.7734 165.56C75.035 165.299 75.3457 165.168 75.7055 165.168H87.8232ZM95.869 178.708C95.8036 177.662 95.591 176.697 95.2312 175.814C94.9042 174.898 94.3972 174.113 93.7104 173.459C93.0562 172.772 92.2222 172.249 91.2083 171.889C90.1944 171.497 88.9843 171.3 87.5779 171.3H81.0039V193.377H87.8232C89.1642 193.377 90.3253 193.197 91.3065 192.837C92.2876 192.445 93.1053 191.922 93.7594 191.268C94.4136 190.613 94.9042 189.828 95.2312 188.913C95.591 187.997 95.8036 187.016 95.869 185.969C95.9998 183.549 95.9998 181.129 95.869 178.708Z" fill="white"/>
<path d="M132.767 193.377C133.127 193.377 133.437 193.508 133.699 193.77C133.961 194.031 134.091 194.342 134.091 194.702V198.185C134.091 198.545 133.961 198.855 133.699 199.117C133.437 199.379 133.127 199.51 132.767 199.51H111.23C110.87 199.51 110.559 199.379 110.298 199.117C110.036 198.855 109.905 198.545 109.905 198.185V166.492C109.905 166.133 110.036 165.822 110.298 165.56C110.559 165.299 110.87 165.168 111.23 165.168H132.374C132.734 165.168 133.045 165.299 133.306 165.56C133.568 165.822 133.699 166.133 133.699 166.492V169.976C133.699 170.335 133.568 170.646 133.306 170.908C133.045 171.169 132.734 171.3 132.374 171.3H116.528V179.101H131.295C131.655 179.101 131.966 179.232 132.227 179.493C132.489 179.755 132.62 180.066 132.62 180.425V183.909C132.62 184.268 132.489 184.579 132.227 184.841C131.966 185.102 131.655 185.233 131.295 185.233H116.528V193.377H132.767Z" fill="white"/>
<path d="M152.94 164.677C155.131 164.677 157.061 164.972 158.729 165.56C160.397 166.149 161.787 166.885 162.899 167.768C164.011 168.651 164.845 169.632 165.401 170.712C165.989 171.758 166.316 172.756 166.382 173.704C166.415 174.097 166.284 174.424 165.989 174.685C165.728 174.914 165.417 175.029 165.057 175.029H161.623C161.067 175.029 160.642 174.931 160.348 174.734C160.086 174.506 159.841 174.211 159.612 173.851C159.121 173.034 158.369 172.331 157.355 171.742C156.374 171.12 154.902 170.81 152.94 170.81C152.089 170.81 151.271 170.908 150.487 171.104C149.734 171.268 149.064 171.529 148.475 171.889C147.919 172.216 147.478 172.625 147.15 173.115C146.823 173.606 146.66 174.162 146.66 174.784C146.66 175.536 146.807 176.157 147.101 176.648C147.428 177.106 147.952 177.515 148.671 177.874C149.424 178.201 150.405 178.512 151.615 178.806C152.825 179.101 154.33 179.444 156.128 179.837C158.091 180.262 159.775 180.769 161.182 181.358C162.621 181.914 163.782 182.6 164.665 183.418C165.581 184.203 166.251 185.119 166.676 186.165C167.134 187.212 167.363 188.406 167.363 189.747C167.363 191.218 167.036 192.592 166.382 193.868C165.728 195.111 164.796 196.19 163.585 197.106C162.375 197.989 160.887 198.692 159.121 199.215C157.355 199.739 155.376 200 153.185 200C151.353 200 149.603 199.788 147.935 199.362C146.267 198.905 144.779 198.267 143.471 197.449C142.195 196.599 141.165 195.585 140.38 194.407C139.595 193.23 139.154 191.922 139.056 190.483C139.023 190.09 139.137 189.779 139.399 189.55C139.693 189.289 140.02 189.158 140.38 189.158H143.814C144.37 189.158 144.796 189.256 145.09 189.452C145.384 189.649 145.63 189.943 145.826 190.335C146.055 190.761 146.333 191.186 146.66 191.611C146.987 192.036 147.428 192.412 147.984 192.739C148.541 193.066 149.227 193.344 150.045 193.573C150.895 193.77 151.942 193.868 153.185 193.868C154.166 193.868 155.114 193.802 156.03 193.671C156.946 193.508 157.747 193.263 158.434 192.936C159.121 192.576 159.677 192.151 160.102 191.66C160.527 191.137 160.74 190.499 160.74 189.747C160.74 189.027 160.511 188.438 160.053 187.981C159.595 187.523 158.892 187.13 157.944 186.803C157.028 186.476 155.883 186.165 154.509 185.871C153.136 185.577 151.549 185.201 149.751 184.743C148.115 184.35 146.676 183.892 145.433 183.369C144.223 182.813 143.209 182.142 142.392 181.358C141.607 180.573 141.018 179.657 140.626 178.61C140.233 177.531 140.037 176.255 140.037 174.784C140.037 173.312 140.364 171.954 141.018 170.712C141.672 169.469 142.572 168.406 143.716 167.523C144.861 166.64 146.218 165.953 147.788 165.462C149.391 164.939 151.108 164.677 152.94 164.677Z" fill="white"/>
<path d="M195.054 188.618C195.12 188.193 195.283 187.882 195.545 187.686C195.839 187.457 196.15 187.343 196.477 187.343H200.451C200.81 187.343 201.121 187.474 201.383 187.735C201.677 187.964 201.808 188.275 201.775 188.667C201.677 190.008 201.334 191.349 200.745 192.69C200.189 194.031 199.322 195.241 198.145 196.321C196.967 197.4 195.479 198.283 193.68 198.97C191.882 199.657 189.707 200 187.156 200C184.899 200 182.904 199.673 181.17 199.019C179.437 198.332 177.965 197.4 176.755 196.223C175.545 195.012 174.596 193.573 173.909 191.905C173.255 190.237 172.863 188.422 172.732 186.46C172.667 185.217 172.634 183.843 172.634 182.339C172.634 180.834 172.667 179.461 172.732 178.218C172.863 176.255 173.255 174.44 173.909 172.772C174.596 171.104 175.545 169.681 176.755 168.504C177.965 167.294 179.437 166.362 181.17 165.707C182.904 165.021 184.899 164.677 187.156 164.677C189.707 164.677 191.882 165.021 193.68 165.707C195.479 166.394 196.967 167.277 198.145 168.357C199.322 169.436 200.189 170.663 200.745 172.036C201.334 173.377 201.677 174.702 201.775 176.01C201.808 176.402 201.677 176.73 201.383 176.991C201.121 177.22 200.81 177.335 200.451 177.335H196.477C196.15 177.335 195.839 177.237 195.545 177.04C195.25 176.811 195.07 176.484 195.005 176.059C194.907 175.405 194.678 174.767 194.318 174.146C193.958 173.524 193.468 172.968 192.846 172.478C192.225 171.987 191.44 171.595 190.492 171.3C189.543 170.973 188.431 170.81 187.156 170.81C185.88 170.81 184.768 171.006 183.819 171.398C182.871 171.791 182.07 172.314 181.416 172.968C180.794 173.622 180.304 174.407 179.944 175.323C179.617 176.239 179.42 177.204 179.355 178.218C179.29 179.461 179.257 180.834 179.257 182.339C179.257 183.843 179.29 185.217 179.355 186.46C179.42 187.506 179.617 188.488 179.944 189.403C180.304 190.286 180.794 191.055 181.416 191.709C182.07 192.363 182.871 192.887 183.819 193.279C184.768 193.671 185.88 193.868 187.156 193.868C188.431 193.868 189.543 193.721 190.492 193.426C191.44 193.099 192.225 192.69 192.846 192.2C193.501 191.709 194.008 191.153 194.367 190.532C194.727 189.91 194.956 189.272 195.054 188.618Z" fill="white"/>
<path d="M224.282 165.168C224.805 165.168 225.198 165.315 225.459 165.609C225.721 165.871 225.95 166.28 226.146 166.836L238.166 197.842C238.198 197.94 238.215 198.054 238.215 198.185C238.215 198.545 238.084 198.855 237.822 199.117C237.561 199.379 237.25 199.51 236.89 199.51H233.358C232.704 199.51 232.246 199.379 231.984 199.117C231.722 198.823 231.543 198.545 231.444 198.283L229.335 192.837H213.832L211.723 198.283C211.624 198.545 211.445 198.823 211.183 199.117C210.921 199.379 210.463 199.51 209.809 199.51H206.277C205.917 199.51 205.606 199.379 205.345 199.117C205.083 198.855 204.952 198.545 204.952 198.185C204.952 198.054 204.969 197.94 205.001 197.842L217.021 166.836C217.217 166.28 217.446 165.871 217.708 165.609C217.969 165.315 218.362 165.168 218.885 165.168H224.282ZM226.98 186.705L221.583 172.723L216.187 186.705H226.98Z" fill="white"/>
<path d="M266.478 193.377C266.838 193.377 267.148 193.508 267.41 193.77C267.672 194.031 267.803 194.342 267.803 194.702V198.185C267.803 198.545 267.672 198.855 267.41 199.117C267.148 199.379 266.838 199.51 266.478 199.51H244.99C244.63 199.51 244.319 199.379 244.058 199.117C243.796 198.855 243.665 198.545 243.665 198.185V166.492C243.665 166.133 243.796 165.822 244.058 165.56C244.319 165.299 244.63 165.168 244.99 165.168H248.964C249.324 165.168 249.634 165.299 249.896 165.56C250.158 165.822 250.288 166.133 250.288 166.492V193.377H266.478Z" fill="white"/>
<path d="M289.629 165.168C290.152 165.168 290.545 165.315 290.806 165.609C291.068 165.871 291.297 166.28 291.493 166.836L303.513 197.842C303.545 197.94 303.562 198.054 303.562 198.185C303.562 198.545 303.431 198.855 303.169 199.117C302.908 199.379 302.597 199.51 302.237 199.51H298.705C298.051 199.51 297.593 199.379 297.331 199.117C297.07 198.823 296.89 198.545 296.791 198.283L294.682 192.837H279.179L277.07 198.283C276.971 198.545 276.792 198.823 276.53 199.117C276.268 199.379 275.81 199.51 275.156 199.51H271.624C271.264 199.51 270.953 199.379 270.692 199.117C270.43 198.855 270.299 198.545 270.299 198.185C270.299 198.054 270.316 197.94 270.348 197.842L282.368 166.836C282.564 166.28 282.793 165.871 283.055 165.609C283.316 165.315 283.709 165.168 284.232 165.168H289.629ZM292.327 186.705L286.931 172.723L281.534 186.705H292.327Z" fill="white"/>
<path d="M322.455 165.168C324.875 165.168 326.968 165.495 328.734 166.149C330.533 166.77 332.021 167.67 333.199 168.847C334.409 170.025 335.325 171.447 335.946 173.115C336.6 174.784 336.993 176.648 337.123 178.708C337.254 181.129 337.254 183.549 337.123 185.969C336.993 188.03 336.6 189.894 335.946 191.562C335.325 193.23 334.425 194.653 333.248 195.83C332.07 197.008 330.599 197.923 328.832 198.577C327.099 199.199 325.055 199.51 322.7 199.51H310.337C309.977 199.51 309.666 199.379 309.405 199.117C309.143 198.855 309.012 198.545 309.012 198.185V166.492C309.012 166.133 309.143 165.822 309.405 165.56C309.666 165.299 309.977 165.168 310.337 165.168H322.455ZM330.5 178.708C330.435 177.662 330.222 176.697 329.863 175.814C329.536 174.898 329.029 174.113 328.342 173.459C327.688 172.772 326.854 172.249 325.84 171.889C324.826 171.497 323.616 171.3 322.209 171.3H315.635V193.377H322.455C323.796 193.377 324.957 193.197 325.938 192.837C326.919 192.445 327.737 191.922 328.391 191.268C329.045 190.613 329.536 189.828 329.863 188.913C330.222 187.997 330.435 187.016 330.5 185.969C330.631 183.549 330.631 181.129 330.5 178.708Z" fill="white"/>
<path d="M359.958 165.168C360.482 165.168 360.874 165.315 361.136 165.609C361.398 165.871 361.626 166.28 361.823 166.836L373.842 197.842C373.875 197.94 373.891 198.054 373.891 198.185C373.891 198.545 373.761 198.855 373.499 199.117C373.237 199.379 372.927 199.51 372.567 199.51H369.034C368.38 199.51 367.922 199.379 367.661 199.117C367.399 198.823 367.219 198.545 367.121 198.283L365.012 192.837H349.509L347.399 198.283C347.301 198.545 347.121 198.823 346.86 199.117C346.598 199.379 346.14 199.51 345.486 199.51H341.954C341.594 199.51 341.283 199.379 341.021 199.117C340.76 198.855 340.629 198.545 340.629 198.185C340.629 198.054 340.645 197.94 340.678 197.842L352.698 166.836C352.894 166.28 353.123 165.871 353.384 165.609C353.646 165.315 354.039 165.168 354.562 165.168H359.958ZM362.657 186.705L357.26 172.723L351.864 186.705H362.657Z" fill="white"/>
</svg>
