<svg width="372" height="200" viewBox="0 0 372 200" fill="none" xmlns="http://www.w3.org/2000/svg">
<path d="M271.97 143.098L249.075 36.0502C248.983 35.5554 248.752 35.0966 248.411 34.7264C248.07 34.3562 247.632 34.0896 247.146 33.957C246.664 33.8121 246.15 33.7994 245.661 33.9202C245.172 34.041 244.724 34.2909 244.364 34.6439L231.837 47.1704C231.474 47.5699 231.218 48.0531 231.087 48.5768L222.025 91.2914L207.406 22.3135C207.328 21.9339 207.172 21.5748 206.947 21.2594C206.721 20.944 206.434 20.6792 206.1 20.482L171.235 0.367459C170.811 0.126616 170.329 0 169.842 0C169.355 0 168.876 0.126616 168.453 0.367459L145.558 13.679C145.221 13.8759 144.93 14.1401 144.699 14.4553C144.468 14.7704 144.302 15.1296 144.217 15.5106L133.491 66.042L117.563 56.8515C117.173 56.6507 116.742 56.546 116.304 56.546C115.866 56.546 115.432 56.6507 115.043 56.8515C114.639 57.0283 114.283 57.2984 114.005 57.6395C113.726 57.9807 113.535 58.3833 113.442 58.8139L95.4858 143.229C95.3496 143.948 95.498 144.692 95.9011 145.302C96.3041 145.913 96.9305 146.343 97.645 146.5C98.3601 146.646 99.1028 146.505 99.7147 146.107C100.327 145.709 100.759 145.087 100.916 144.374L118.087 63.6872L133.98 72.8777C134.375 73.0787 134.814 73.1835 135.257 73.1835C135.701 73.1835 136.137 73.0787 136.532 72.8777C136.934 72.7037 137.287 72.4338 137.56 72.0918C137.834 71.7497 138.022 71.3457 138.103 70.9153L149.384 17.8327L166.884 7.72641L160.832 36.2792C160.752 36.6799 160.799 37.0955 160.963 37.4698C161.126 37.8442 161.4 38.1593 161.748 38.3724L180.261 49.0674L185.004 71.5694L156.223 100.351C155.997 100.587 155.832 100.873 155.74 101.187C155.649 101.5 155.635 101.83 155.699 102.15L164.594 144.047C164.689 144.483 164.927 144.875 165.271 145.159C165.615 145.444 166.045 145.605 166.491 145.617H166.916C167.423 145.507 167.864 145.201 168.146 144.766C168.428 144.331 168.527 143.802 168.421 143.295L159.72 102.444L188.501 73.6627C188.734 73.432 188.905 73.1457 188.996 72.831C189.088 72.5162 189.098 72.1834 189.025 71.8638L183.892 47.4648C183.842 47.1984 183.731 46.9462 183.573 46.7259C183.415 46.5056 183.212 46.3224 182.976 46.1892L164.955 35.7559L171.135 6.71252L202.338 24.7338L219.378 105.355C219.512 105.975 219.855 106.531 220.349 106.93C220.842 107.328 221.458 107.546 222.092 107.547C222.731 107.547 223.35 107.331 223.849 106.933C224.348 106.534 224.698 105.978 224.839 105.355L236.481 50.5719L244.789 42.2317L266.476 144.309C266.617 144.931 266.964 145.488 267.463 145.886C267.962 146.284 268.584 146.501 269.223 146.5C269.407 146.53 269.595 146.53 269.779 146.5C270.497 146.35 271.128 145.922 271.532 145.31C271.937 144.697 272.083 143.949 271.938 143.229" fill="black"/>
<path d="M1.03025 199.51C0.768602 199.51 0.523303 199.412 0.294358 199.215C0.0981194 199.019 0 198.774 0 198.479L0.0981194 198.038L11.9215 166.394C12.1505 165.577 12.7228 165.168 13.6386 165.168H18.9861C19.8365 165.168 20.4088 165.577 20.7032 166.394L32.5266 198.038C32.5593 198.136 32.5756 198.283 32.5756 198.479C32.5756 198.774 32.4775 199.019 32.2813 199.215C32.085 199.412 31.8561 199.51 31.5944 199.51H27.3262C26.9011 199.51 26.574 199.412 26.3451 199.215C26.1161 199.019 25.9689 198.806 25.9035 198.577L23.5977 192.592H9.02698L6.72118 198.577C6.45953 199.199 5.98528 199.51 5.29845 199.51H1.03025ZM21.8806 186.95L16.2878 171.791L10.7441 186.95H21.8806Z" fill="black"/>
<path d="M39.3144 199.51C38.9874 199.51 38.7094 199.395 38.4804 199.166C38.2515 198.937 38.137 198.659 38.137 198.332V166.394C38.137 166.035 38.2351 165.74 38.4314 165.511C38.6603 165.282 38.9547 165.168 39.3144 165.168H43.092C43.4845 165.168 43.7789 165.25 43.9751 165.413C44.1714 165.544 44.3512 165.724 44.5148 165.953L58.644 187.932V166.394C58.644 166.035 58.7421 165.74 58.9383 165.511C59.1673 165.282 59.4616 165.168 59.8214 165.168H63.9424C64.3022 165.168 64.5965 165.282 64.8255 165.511C65.0544 165.74 65.1689 166.035 65.1689 166.394V198.283C65.1689 198.643 65.0544 198.937 64.8255 199.166C64.5965 199.395 64.3185 199.51 63.9915 199.51H60.1648C59.6088 199.51 59.1346 199.248 58.7421 198.725L44.662 177.237V198.332C44.662 198.692 44.5475 198.986 44.3185 199.215C44.0896 199.412 43.7952 199.51 43.4355 199.51H39.3144Z" fill="black"/>
<path d="M74.9824 199.51C74.6553 199.51 74.3773 199.395 74.1484 199.166C73.9194 198.937 73.8049 198.659 73.8049 198.332V166.394C73.8049 166.035 73.9031 165.74 74.0993 165.511C74.3282 165.282 74.6226 165.168 74.9824 165.168H86.9529C96.5686 165.168 101.475 169.616 101.671 178.512C101.736 180.409 101.769 181.685 101.769 182.339C101.769 182.96 101.736 184.219 101.671 186.116C101.54 190.695 100.314 194.08 97.9914 196.272C95.6692 198.43 92.0715 199.51 87.1982 199.51H74.9824ZM86.9529 193.868C89.7003 193.868 91.679 193.263 92.8892 192.053C94.0993 190.81 94.7371 188.782 94.8025 185.969C94.8679 184.007 94.9006 182.78 94.9006 182.29C94.9006 181.766 94.8679 180.556 94.8025 178.659C94.7371 175.977 94.0502 173.999 92.742 172.723C91.4664 171.447 89.455 170.81 86.7076 170.81H80.6242V193.868H86.9529Z" fill="black"/>
<path d="M110.459 199.51C110.132 199.51 109.854 199.395 109.625 199.166C109.396 198.937 109.281 198.659 109.281 198.332V166.394C109.281 166.035 109.379 165.74 109.576 165.511C109.805 165.282 110.099 165.168 110.459 165.168H132.045C132.405 165.168 132.699 165.282 132.928 165.511C133.157 165.74 133.271 166.035 133.271 166.394V169.632C133.271 169.992 133.157 170.286 132.928 170.515C132.699 170.712 132.405 170.81 132.045 170.81H115.904V179.493H130.966C131.325 179.493 131.62 179.608 131.849 179.837C132.078 180.033 132.192 180.311 132.192 180.671V183.712C132.192 184.072 132.078 184.367 131.849 184.595C131.62 184.792 131.325 184.89 130.966 184.89H115.904V193.868H132.437C132.797 193.868 133.092 193.982 133.32 194.211C133.549 194.44 133.664 194.734 133.664 195.094V198.332C133.664 198.692 133.549 198.986 133.32 199.215C133.092 199.412 132.797 199.51 132.437 199.51H110.459Z" fill="black"/>
<path d="M152.703 200C149.792 200 147.29 199.559 145.196 198.676C143.103 197.793 141.517 196.631 140.438 195.192C139.358 193.753 138.786 192.2 138.721 190.532C138.721 190.237 138.819 189.992 139.015 189.796C139.211 189.6 139.456 189.501 139.751 189.501H144.117C144.51 189.501 144.804 189.583 145 189.747C145.229 189.878 145.442 190.107 145.638 190.434C145.965 191.546 146.717 192.478 147.895 193.23C149.072 193.982 150.675 194.358 152.703 194.358C155.025 194.358 156.774 193.982 157.952 193.23C159.129 192.445 159.718 191.366 159.718 189.992C159.718 189.076 159.407 188.324 158.786 187.735C158.197 187.147 157.298 186.64 156.088 186.214C154.91 185.789 153.144 185.266 150.789 184.645C146.93 183.729 144.101 182.519 142.302 181.014C140.536 179.477 139.653 177.302 139.653 174.489C139.653 172.592 140.16 170.908 141.173 169.436C142.22 167.964 143.708 166.803 145.638 165.953C147.6 165.102 149.873 164.677 152.457 164.677C155.139 164.677 157.461 165.151 159.424 166.1C161.386 167.048 162.874 168.242 163.888 169.681C164.935 171.088 165.491 172.494 165.556 173.9C165.556 174.195 165.458 174.44 165.262 174.636C165.066 174.833 164.82 174.931 164.526 174.931H159.963C159.277 174.931 158.802 174.62 158.541 173.999C158.344 172.952 157.69 172.085 156.578 171.398C155.466 170.679 154.093 170.319 152.457 170.319C150.626 170.319 149.187 170.663 148.14 171.349C147.093 172.036 146.57 173.034 146.57 174.342C146.57 175.258 146.832 176.01 147.355 176.599C147.878 177.187 148.696 177.711 149.808 178.169C150.953 178.627 152.588 179.134 154.714 179.69C157.592 180.344 159.882 181.08 161.582 181.897C163.316 182.715 164.591 183.745 165.409 184.988C166.227 186.231 166.635 187.817 166.635 189.747C166.635 191.84 166.047 193.672 164.869 195.241C163.725 196.779 162.089 197.956 159.963 198.774C157.87 199.591 155.45 200 152.703 200Z" fill="black"/>
<path d="M186.485 200C181.972 200 178.472 198.839 175.986 196.517C173.533 194.195 172.225 190.924 172.062 186.705C172.029 185.822 172.012 184.383 172.012 182.388C172.012 180.36 172.029 178.888 172.062 177.972C172.225 173.786 173.55 170.532 176.035 168.21C178.554 165.855 182.037 164.677 186.485 164.677C189.396 164.677 191.931 165.184 194.089 166.198C196.248 167.179 197.916 168.537 199.093 170.27C200.271 171.971 200.892 173.9 200.958 176.059V176.157C200.958 176.419 200.843 176.648 200.614 176.844C200.418 177.008 200.189 177.089 199.927 177.089H195.267C194.874 177.089 194.58 177.008 194.384 176.844C194.187 176.681 194.024 176.37 193.893 175.912C193.37 173.851 192.503 172.412 191.293 171.595C190.083 170.744 188.464 170.319 186.436 170.319C181.726 170.319 179.273 172.952 179.077 178.218C179.044 179.101 179.028 180.458 179.028 182.29C179.028 184.121 179.044 185.511 179.077 186.46C179.273 191.725 181.726 194.358 186.436 194.358C188.464 194.358 190.083 193.933 191.293 193.083C192.536 192.232 193.403 190.793 193.893 188.766C193.991 188.308 194.138 187.997 194.335 187.833C194.564 187.67 194.874 187.588 195.267 187.588H199.927C200.222 187.588 200.467 187.686 200.663 187.882C200.892 188.079 200.99 188.324 200.958 188.618C200.892 190.777 200.271 192.723 199.093 194.456C197.916 196.157 196.248 197.515 194.089 198.528C191.931 199.51 189.396 200 186.485 200Z" fill="black"/>
<path d="M205.264 199.51C205.003 199.51 204.757 199.412 204.528 199.215C204.332 199.019 204.234 198.774 204.234 198.479L204.332 198.038L216.155 166.394C216.384 165.577 216.957 165.168 217.873 165.168H223.22C224.07 165.168 224.643 165.577 224.937 166.394L236.761 198.038C236.793 198.136 236.81 198.283 236.81 198.479C236.81 198.774 236.711 199.019 236.515 199.215C236.319 199.412 236.09 199.51 235.828 199.51H231.56C231.135 199.51 230.808 199.412 230.579 199.215C230.35 199.019 230.203 198.806 230.137 198.577L227.832 192.592H213.261L210.955 198.577C210.693 199.199 210.219 199.51 209.532 199.51H205.264ZM226.115 186.95L220.522 171.791L214.978 186.95H226.115Z" fill="black"/>
<path d="M243.548 199.51C243.221 199.51 242.943 199.395 242.714 199.166C242.485 198.937 242.371 198.659 242.371 198.332V166.345C242.371 165.986 242.485 165.708 242.714 165.511C242.943 165.282 243.221 165.168 243.548 165.168H248.111C248.471 165.168 248.749 165.282 248.945 165.511C249.174 165.708 249.288 165.986 249.288 166.345V193.672H264.84C265.2 193.672 265.494 193.786 265.723 194.015C265.952 194.244 266.067 194.538 266.067 194.898V198.332C266.067 198.692 265.952 198.986 265.723 199.215C265.494 199.412 265.2 199.51 264.84 199.51H243.548Z" fill="black"/>
<path d="M269.701 199.51C269.439 199.51 269.194 199.412 268.965 199.215C268.769 199.019 268.671 198.774 268.671 198.479L268.769 198.038L280.592 166.394C280.821 165.577 281.394 165.168 282.309 165.168H287.657C288.507 165.168 289.08 165.577 289.374 166.394L301.197 198.038C301.23 198.136 301.246 198.283 301.246 198.479C301.246 198.774 301.148 199.019 300.952 199.215C300.756 199.412 300.527 199.51 300.265 199.51H295.997C295.572 199.51 295.245 199.412 295.016 199.215C294.787 199.019 294.64 198.806 294.574 198.577L292.269 192.592H277.698L275.392 198.577C275.13 199.199 274.656 199.51 273.969 199.51H269.701ZM290.551 186.95L284.959 171.791L279.415 186.95H290.551Z" fill="black"/>
<path d="M307.985 199.51C307.658 199.51 307.38 199.395 307.151 199.166C306.922 198.937 306.808 198.659 306.808 198.332V166.394C306.808 166.035 306.906 165.74 307.102 165.511C307.331 165.282 307.625 165.168 307.985 165.168H319.956C329.572 165.168 334.477 169.616 334.674 178.512C334.739 180.409 334.772 181.685 334.772 182.339C334.772 182.96 334.739 184.219 334.674 186.116C334.543 190.695 333.316 194.08 330.994 196.272C328.672 198.43 325.074 199.51 320.201 199.51H307.985ZM319.956 193.868C322.703 193.868 324.682 193.263 325.892 192.053C327.102 190.81 327.74 188.782 327.805 185.969C327.871 184.007 327.903 182.78 327.903 182.29C327.903 181.766 327.871 180.556 327.805 178.659C327.74 175.977 327.053 173.999 325.745 172.723C324.469 171.447 322.458 170.81 319.71 170.81H313.627V193.868H319.956Z" fill="black"/>
<path d="M339.504 199.51C339.242 199.51 338.997 199.412 338.768 199.215C338.572 199.019 338.474 198.774 338.474 198.479L338.572 198.038L350.395 166.394C350.624 165.577 351.196 165.168 352.112 165.168H357.46C358.31 165.168 358.882 165.577 359.177 166.394L371 198.038C371.033 198.136 371.049 198.283 371.049 198.479C371.049 198.774 370.951 199.019 370.755 199.215C370.559 199.412 370.33 199.51 370.068 199.51H365.8C365.375 199.51 365.048 199.412 364.819 199.215C364.59 199.019 364.442 198.806 364.377 198.577L362.071 192.592H347.501L345.195 198.577C344.933 199.199 344.459 199.51 343.772 199.51H339.504ZM360.354 186.95L354.761 171.791L349.218 186.95H360.354Z" fill="black"/>
</svg>
